<svg version="1.1" id="Layer_1" xmlns="http://www.w3.org/2000/svg" xmlns:xlink="http://www.w3.org/1999/xlink" x="0px" y="0px"
	 width="100%" viewBox="0 0 180 180" enable-background="new 0 0 180 180" xml:space="preserve">
<path fill="#2B5DA8" opacity="1.000000" stroke="none" 
	d="
M1.000000,172.000000 
	C1.000000,118.312439 1.000000,64.624878 1.293831,10.746441 
	C3.673918,8.298439 5.780763,6.059829 7.835927,3.774739 
	C8.618366,2.904762 9.282143,1.928061 10.000000,1.000000 
	C63.687561,1.000000 117.375122,1.000000 171.253555,1.293824 
	C173.701553,3.673908 175.940186,5.780755 178.225266,7.835927 
	C179.095245,8.618362 180.071945,9.282143 181.000000,10.000000 
	C181.000000,63.687561 181.000000,117.375122 180.706177,171.253555 
	C178.326096,173.701553 176.219238,175.940186 174.164078,178.225281 
	C173.381638,179.095261 172.717865,180.071945 172.000000,181.000000 
	C118.312439,181.000000 64.624878,181.000000 10.746443,180.706177 
	C8.298439,178.326096 6.059828,176.219254 3.774733,174.164078 
	C2.904763,173.381638 1.928061,172.717850 1.000000,172.000000 
M38.658669,151.231857 
	C39.932377,151.486984 41.205811,151.963333 42.479839,151.964920 
	C75.423721,152.006042 108.367706,152.014435 141.311493,151.945541 
	C142.857086,151.942307 144.401062,151.174637 146.441711,150.262146 
	C147.914566,149.601654 149.814941,149.319122 150.788864,148.217545 
	C155.964172,142.363785 152.848984,127.456818 145.340897,123.623604 
	C143.547592,123.415443 141.754807,123.031662 139.960922,123.026543 
	C123.638855,122.979950 107.316307,123.045532 90.994781,122.941109 
	C88.953934,122.928047 86.918198,122.118385 85.133575,121.068626 
	C86.802025,119.381706 88.470482,117.694794 91.098015,115.038185 
	C82.206207,115.452896 74.848007,115.796082 66.994873,116.162354 
	C66.994873,108.151031 66.994873,100.683685 66.994873,92.259140 
	C55.163750,104.612305 44.470325,116.648453 32.801231,127.649704 
	C25.254803,134.764236 26.768995,147.013382 38.658669,151.231857 
M142.346786,30.644106 
	C141.389236,30.433043 140.431915,30.038607 139.474121,30.037514 
	C109.044281,30.002745 78.614357,29.989958 48.184628,30.056211 
	C46.807137,30.059208 45.431320,30.828829 43.621563,31.759428 
	C37.249798,34.197433 37.503410,39.770794 37.710453,45.004726 
	C37.922241,50.358578 38.313404,55.946850 45.578274,58.387905 
	C47.371037,58.593479 49.163139,58.970306 50.956673,58.977249 
	C64.087372,59.028072 77.218681,58.960392 90.348915,59.054115 
	C92.250092,59.067680 94.146530,59.743149 95.823616,60.756096 
	C92.434586,64.717995 89.045555,68.679901 85.482681,72.845032 
	C80.923775,68.531364 76.926712,64.749313 71.995628,60.083488 
	C71.995628,77.185677 72.038742,92.796219 71.962524,108.406174 
	C71.945435,111.907875 74.028931,112.089401 76.576836,111.850395 
	C86.464760,110.922882 96.343964,109.891792 106.241013,109.076469 
	C111.274422,108.661812 116.338875,108.624077 121.389297,108.415955 
	C121.661476,107.822044 121.933662,107.228127 122.205849,106.634209 
	C117.950989,103.088219 113.696129,99.542229 109.505219,96.049530 
	C123.683464,81.394241 137.059067,67.627541 150.360535,53.789585 
	C155.431778,48.513790 155.634567,41.655453 150.597397,36.432320 
	C148.500000,34.257492 145.526138,32.927917 142.346786,30.644106 
z"/>
<path fill="#000000" opacity="1.000000" stroke="none" 
	d="
M9.508951,1.000000 
	C9.282143,1.928061 8.618366,2.904762 7.835927,3.774739 
	C5.780763,6.059829 3.673918,8.298439 1.293831,10.277784 
	C1.000000,7.082645 1.000000,4.165290 1.000000,1.000000 
	C3.670005,1.000000 6.343954,1.000000 9.508951,1.000000 
z"/>
<path fill="#000000" opacity="1.000000" stroke="none" 
	d="
M181.000000,9.508951 
	C180.071945,9.282143 179.095245,8.618362 178.225266,7.835927 
	C175.940186,5.780755 173.701553,3.673908 171.722214,1.293824 
	C174.917358,1.000000 177.834702,1.000000 181.000000,1.000000 
	C181.000000,3.670005 181.000000,6.343954 181.000000,9.508951 
z"/>
<path fill="#000000" opacity="1.000000" stroke="none" 
	d="
M1.000000,172.491058 
	C1.928061,172.717850 2.904763,173.381638 3.774733,174.164078 
	C6.059828,176.219254 8.298439,178.326096 10.277784,180.706177 
	C7.082646,181.000000 4.165292,181.000000 1.000000,181.000000 
	C1.000000,178.330002 1.000000,175.656052 1.000000,172.491058 
z"/>
<path fill="#000000" opacity="1.000000" stroke="none" 
	d="
M172.491058,181.000000 
	C172.717865,180.071945 173.381638,179.095261 174.164078,178.225281 
	C176.219238,175.940186 178.326096,173.701553 180.706177,171.722214 
	C181.000000,174.917358 181.000000,177.834702 181.000000,181.000000 
	C178.330002,181.000000 175.656052,181.000000 172.491058,181.000000 
z"/>
<path fill="#FCFCFD" opacity="1.000000" stroke="none" 
	d="
M44.940872,57.833672 
	C38.313404,55.946850 37.922241,50.358578 37.710453,45.004726 
	C37.503410,39.770794 37.249798,34.197433 44.302864,31.483669 
	C77.639725,31.209936 110.295280,31.211962 142.950836,31.213987 
	C145.526138,32.927917 148.500000,34.257492 150.597397,36.432320 
	C155.634567,41.655453 155.431778,48.513790 150.360535,53.789585 
	C137.059067,67.627541 123.683464,81.394241 109.505219,96.049530 
	C113.696129,99.542229 117.950989,103.088219 122.205849,106.634209 
	C121.933662,107.228127 121.661476,107.822044 121.389297,108.415955 
	C116.338875,108.624077 111.274422,108.661812 106.241013,109.076469 
	C96.343964,109.891792 86.464760,110.922882 76.576836,111.850395 
	C74.028931,112.089401 71.945435,111.907875 71.962524,108.406174 
	C72.038742,92.796219 71.995628,77.185677 71.995628,60.083488 
	C76.926712,64.749313 80.923775,68.531364 85.482681,72.845032 
	C89.045555,68.679901 92.434586,64.717995 96.298569,60.390488 
	C97.631767,59.752819 98.490005,59.480762 99.348244,59.208706 
	C98.951355,58.750362 98.554459,58.292015 98.157562,57.833672 
	C80.418671,57.833672 62.679771,57.833672 44.940872,57.833672 
z"/>
<path fill="#FBFCFD" opacity="1.000000" stroke="none" 
	d="
M145.934631,124.200714 
	C152.848984,127.456818 155.964172,142.363785 150.788864,148.217545 
	C149.814941,149.319122 147.914566,149.601654 145.728790,150.519348 
	C121.025986,150.820709 97.036079,150.900146 73.046196,150.893906 
	C61.388428,150.890884 49.730705,150.727585 38.072964,150.636871 
	C26.768995,147.013382 25.254803,134.764236 32.801231,127.649704 
	C44.470325,116.648453 55.163750,104.612305 66.994873,92.259140 
	C66.994873,100.683685 66.994873,108.151031 66.994873,116.162354 
	C74.848007,115.796082 82.206207,115.452896 91.098015,115.038185 
	C88.470482,117.694794 86.802025,119.381706 84.652054,121.568527 
	C81.846710,126.003441 85.680191,124.173828 86.454750,124.177475 
	C106.280975,124.270927 126.107857,124.223549 145.934631,124.200714 
z"/>
<path fill="#003D9E" opacity="1.000000" stroke="none" 
	d="
M38.365814,150.934357 
	C49.730705,150.727585 61.388428,150.890884 73.046196,150.893906 
	C97.036079,150.900146 121.025986,150.820709 145.480835,150.769760 
	C144.401062,151.174637 142.857086,151.942307 141.311493,151.945541 
	C108.367706,152.014435 75.423721,152.006042 42.479839,151.964920 
	C41.205811,151.963333 39.932377,151.486984 38.365814,150.934357 
z"/>
<path fill="#003C9E" opacity="1.000000" stroke="none" 
	d="
M142.648804,30.929047 
	C110.295280,31.211962 77.639725,31.209936 44.519447,31.224648 
	C45.431320,30.828829 46.807137,30.059208 48.184628,30.056211 
	C78.614357,29.989958 109.044281,30.002745 139.474121,30.037514 
	C140.431915,30.038607 141.389236,30.433043 142.648804,30.929047 
z"/>
<path fill="#004AA1" opacity="1.000000" stroke="none" 
	d="
M145.637756,123.912155 
	C126.107857,124.223549 106.280975,124.270927 86.454750,124.177475 
	C85.680191,124.173828 81.846710,126.003441 84.525314,121.873123 
	C86.918198,122.118385 88.953934,122.928047 90.994781,122.941109 
	C107.316307,123.045532 123.638855,122.979950 139.960922,123.026543 
	C141.754807,123.031662 143.547592,123.415443 145.637756,123.912155 
z"/>
<path fill="#024CA2" opacity="1.000000" stroke="none" 
	d="
M45.259575,58.110786 
	C62.679771,57.833672 80.418671,57.833672 98.157562,57.833672 
	C98.554459,58.292015 98.951355,58.750362 99.348244,59.208706 
	C98.490005,59.480762 97.631767,59.752819 96.409348,60.068604 
	C94.146530,59.743149 92.250092,59.067680 90.348915,59.054115 
	C77.218681,58.960392 64.087372,59.028072 50.956673,58.977249 
	C49.163139,58.970306 47.371037,58.593479 45.259575,58.110786 
z"/>
</svg>